<?xml version="1.0" encoding="UTF-8"?>
<svg xmlns="http://www.w3.org/2000/svg"
     xmlns:xlink="http://www.w3.org/1999/xlink"
     version="1.2"
     width="160mm" height="160mm" viewBox="0 0 160 160"
     stroke="none"
     fill="#000000"
     stroke-width="0.3"
     font-size="3.88"
>
<defs>
  <marker id="arrow" markerWidth="15" markerHeight="7" refX="5" refY="3.5" orient="auto" markerUnits="strokeWidth">
    <path d="M0,0 L15,3.5 L0,7 z" stroke="context-stroke" fill="context-stroke"/>
  </marker>
</defs>
<g stroke-width="0.42" fill="#000000" fill-opacity="0.000" stroke="#D3D3D3" id="img-2a102d01-1">
</g>
<g stroke-width="0.42" stroke="#D3D3D3" id="img-2a102d01-2">
</g>
<g font-size="4" stroke="#000000" stroke-opacity="0.000" fill="#000000" id="img-2a102d01-3">
</g>
<g stroke-width="0" stroke="#000000" stroke-opacity="0.000" fill="#40E0D0" id="img-2a102d01-4">
  <g transform="translate(110.85,140.02)">
    <circle cx="0" cy="0" r="2.26" class="primitive"/>
  </g>
  <g transform="translate(82.5,146.16)">
    <circle cx="0" cy="0" r="2.26" class="primitive"/>
  </g>
  <g transform="translate(78.21,15.12)">
    <circle cx="0" cy="0" r="2.26" class="primitive"/>
  </g>
  <g transform="translate(139.73,75.77)">
    <circle cx="0" cy="0" r="2.26" class="primitive"/>
  </g>
  <g transform="translate(22.07,111.38)">
    <circle cx="0" cy="0" r="2.26" class="primitive"/>
  </g>
  <g transform="translate(130.65,114.04)">
    <circle cx="0" cy="0" r="2.26" class="primitive"/>
  </g>
  <g transform="translate(20.56,50.57)">
    <circle cx="0" cy="0" r="2.26" class="primitive"/>
  </g>
  <g transform="translate(23.8,40.56)">
    <circle cx="0" cy="0" r="2.26" class="primitive"/>
  </g>
  <g transform="translate(145.84,69.43)">
    <circle cx="0" cy="0" r="2.26" class="primitive"/>
  </g>
  <g transform="translate(47.11,138.45)">
    <circle cx="0" cy="0" r="2.26" class="primitive"/>
  </g>
  <g transform="translate(64.18,142.69)">
    <circle cx="0" cy="0" r="2.26" class="primitive"/>
  </g>
  <g transform="translate(68.73,15.11)">
    <circle cx="0" cy="0" r="2.26" class="primitive"/>
  </g>
  <g transform="translate(115.04,26.99)">
    <circle cx="0" cy="0" r="2.26" class="primitive"/>
  </g>
  <g transform="translate(15.17,62.15)">
    <circle cx="0" cy="0" r="2.26" class="primitive"/>
  </g>
  <g transform="translate(123.5,131.9)">
    <circle cx="0" cy="0" r="2.26" class="primitive"/>
  </g>
  <g transform="translate(146.67,82.69)">
    <circle cx="0" cy="0" r="2.26" class="primitive"/>
  </g>
  <g transform="translate(92.4,145.97)">
    <circle cx="0" cy="0" r="2.26" class="primitive"/>
  </g>
  <g transform="translate(13.33,83.23)">
    <circle cx="0" cy="0" r="2.26" class="primitive"/>
  </g>
  <g transform="translate(108.91,18.28)">
    <circle cx="0" cy="0" r="2.26" class="primitive"/>
  </g>
  <g transform="translate(139.83,110.72)">
    <circle cx="0" cy="0" r="2.26" class="primitive"/>
  </g>
  <g transform="translate(36.03,26.93)">
    <circle cx="0" cy="0" r="2.26" class="primitive"/>
  </g>
  <g transform="translate(99.24,17.8)">
    <circle cx="0" cy="0" r="2.26" class="primitive"/>
  </g>
  <g transform="translate(131.87,122.89)">
    <circle cx="0" cy="0" r="2.26" class="primitive"/>
  </g>
  <g transform="translate(32.85,37.58)">
    <circle cx="0" cy="0" r="2.26" class="primitive"/>
  </g>
  <g transform="translate(122.92,26.05)">
    <circle cx="0" cy="0" r="2.26" class="primitive"/>
  </g>
  <g transform="translate(17.94,91.4)">
    <circle cx="0" cy="0" r="2.26" class="primitive"/>
  </g>
  <g transform="translate(40.43,131.25)">
    <circle cx="0" cy="0" r="2.26" class="primitive"/>
  </g>
  <g transform="translate(16.88,101.47)">
    <circle cx="0" cy="0" r="2.26" class="primitive"/>
  </g>
  <g transform="translate(50.55,19.92)">
    <circle cx="0" cy="0" r="2.26" class="primitive"/>
  </g>
  <g transform="translate(34.39,123.24)">
    <circle cx="0" cy="0" r="2.26" class="primitive"/>
  </g>
  <g transform="translate(109.07,59.15)">
    <circle cx="0" cy="0" r="2.26" class="primitive"/>
  </g>
  <g transform="translate(115.35,130.66)">
    <circle cx="0" cy="0" r="2.26" class="primitive"/>
  </g>
  <g transform="translate(45.09,28.03)">
    <circle cx="0" cy="0" r="2.26" class="primitive"/>
  </g>
  <g transform="translate(146.1,92.55)">
    <circle cx="0" cy="0" r="2.26" class="primitive"/>
  </g>
  <g transform="translate(56,138.17)">
    <circle cx="0" cy="0" r="2.26" class="primitive"/>
  </g>
  <g transform="translate(33.09,102.04)">
    <circle cx="0" cy="0" r="2.26" class="primitive"/>
  </g>
  <g transform="translate(144.19,59.11)">
    <circle cx="0" cy="0" r="2.26" class="primitive"/>
  </g>
  <g transform="translate(72.64,146.67)">
    <circle cx="0" cy="0" r="2.26" class="primitive"/>
  </g>
  <g transform="translate(86.04,24.54)">
    <circle cx="0" cy="0" r="2.26" class="primitive"/>
  </g>
  <g transform="translate(129.61,35.03)">
    <circle cx="0" cy="0" r="2.26" class="primitive"/>
  </g>
  <g transform="translate(101.16,141.87)">
    <circle cx="0" cy="0" r="2.26" class="primitive"/>
  </g>
  <g transform="translate(138.89,50.94)">
    <circle cx="0" cy="0" r="2.26" class="primitive"/>
  </g>
  <g transform="translate(59.69,17.33)">
    <circle cx="0" cy="0" r="2.26" class="primitive"/>
  </g>
  <g transform="translate(84.56,125.24)">
    <circle cx="0" cy="0" r="2.26" class="primitive"/>
  </g>
  <g transform="translate(89.18,13.33)">
    <circle cx="0" cy="0" r="2.26" class="primitive"/>
  </g>
  <g transform="translate(142.28,101.19)">
    <circle cx="0" cy="0" r="2.26" class="primitive"/>
  </g>
  <g transform="translate(137.09,41.72)">
    <circle cx="0" cy="0" r="2.26" class="primitive"/>
  </g>
  <g transform="translate(15.61,73.43)">
    <circle cx="0" cy="0" r="2.26" class="primitive"/>
  </g>
  <g transform="translate(26.65,122.83)">
    <circle cx="0" cy="0" r="2.26" class="primitive"/>
  </g>
  <g transform="translate(24.7,61.09)">
    <circle cx="0" cy="0" r="2.26" class="primitive"/>
  </g>
</g>
<g font-size="4" stroke="#000000" stroke-opacity="0.000" fill="#000000" id="img-2a102d01-5">
</g>
</svg>
