<?xml version="1.0" encoding="UTF-8"?>
<svg xmlns="http://www.w3.org/2000/svg"
     xmlns:xlink="http://www.w3.org/1999/xlink"
     version="1.2"
     width="160mm" height="160mm" viewBox="0 0 160 160"
     stroke="none"
     fill="#000000"
     stroke-width="0.3"
     font-size="3.88"
>
<defs>
  <marker id="arrow" markerWidth="15" markerHeight="7" refX="5" refY="3.5" orient="auto" markerUnits="strokeWidth">
    <path d="M0,0 L15,3.5 L0,7 z" stroke="context-stroke" fill="context-stroke"/>
  </marker>
</defs>
<g stroke-width="0.87" fill="#000000" fill-opacity="0.000" stroke="#D3D3D3" id="img-2a102d01-1">
  <g transform="translate(35.4,136.15)">
    <path fill="none" d="M-12.8,-7.98 L 12.8 7.98" class="primitive"/>
  </g>
  <g transform="translate(15.92,107.19)">
    <path fill="none" d="M1.92,13.68 L -1.92 -13.68" class="primitive"/>
  </g>
  <g transform="translate(80.78,65.78)">
    <path fill="none" d="M8.04,-22.36 L -8.04 22.36" class="primitive"/>
  </g>
  <g transform="translate(70.83,140.54)">
    <path fill="none" d="M13.97,-4.62 L -13.97 4.62" class="primitive"/>
  </g>
  <g transform="translate(86.26,101.5)">
    <path fill="none" d="M2.65,28.12 L -2.65 -28.12" class="primitive"/>
  </g>
  <g transform="translate(137.37,55.61)">
    <path fill="none" d="M6.66,-10.18 L -6.66 10.18" class="primitive"/>
  </g>
  <g transform="translate(114.91,55)">
    <path fill="none" d="M27.33,-11.7 L -27.33 11.7" class="primitive"/>
  </g>
  <g transform="translate(44.81,109.15)">
    <path fill="none" d="M22.22,-13.92 L -22.22 13.92" class="primitive"/>
  </g>
  <g transform="translate(61.69,119.67)">
    <path fill="none" d="M7.83,-22.46 L -7.83 22.46" class="primitive"/>
  </g>
  <g transform="translate(99.59,81.24)">
    <path fill="none" d="M-24.02,9.64 L 24.02 -9.64" class="primitive"/>
  </g>
  <g transform="translate(96,99.39)">
    <path fill="none" d="M-20.24,-5.47 L 20.24 5.47" class="primitive"/>
  </g>
  <g transform="translate(56.61,69.52)">
    <path fill="none" d="M11.94,19.07 L -11.94 -19.07" class="primitive"/>
  </g>
  <g transform="translate(66.37,40.96)">
    <path fill="none" d="M14.29,23.52 L -14.29 -23.52" class="primitive"/>
  </g>
  <g transform="translate(86.8,53.75)">
    <path fill="none" d="M-2.5,10.17 L 2.5 -10.17" class="primitive"/>
  </g>
  <g transform="translate(105.62,69.2)">
    <path fill="none" d="M-17.65,-0.48 L 17.65 0.48" class="primitive"/>
  </g>
  <g transform="translate(77.13,80.63)">
    <path fill="none" d="M3.87,-7.74 L -3.87 7.74" class="primitive"/>
  </g>
  <g transform="translate(48.25,78.67)">
    <path fill="none" d="M30.29,-8.74 L -30.29 8.74" class="primitive"/>
  </g>
  <g transform="translate(102.02,87.35)">
    <path fill="none" d="M-15.45,-15.37 L 15.45 15.37" class="primitive"/>
  </g>
  <g transform="translate(62.64,57.48)">
    <path fill="none" d="M16.29,8.82 L -16.29 -8.82" class="primitive"/>
  </g>
  <g transform="translate(45.85,29.85)">
    <path fill="none" d="M-2.67,11.82 L 2.67 -11.82" class="primitive"/>
  </g>
</g>
<g stroke-width="0.87" stroke="#D3D3D3" id="img-2a102d01-2">
  <g transform="translate(44.65,141.91)">
    <path fill="none" d="M-0.57,-3.04 L 3.54 2.21 -2.98 0.83" class="primitive"/>
  </g>
  <g transform="translate(14.58,97.64)">
    <path fill="none" d="M-1.97,2.38 L -0.58 -4.14 2.55 1.75" class="primitive"/>
  </g>
  <g transform="translate(74.15,84.21)">
    <path fill="none" d="M2.85,-1.19 L -1.41 3.93 -1.44 -2.74" class="primitive"/>
  </g>
  <g transform="translate(60.82,143.85)">
    <path fill="none" d="M2.7,1.51 L -3.97 1.31 1.27 -2.82" class="primitive"/>
  </g>
  <g transform="translate(84,77.54)">
    <path fill="none" d="M-2.07,2.29 L -0.39 -4.16 2.47 1.86" class="primitive"/>
  </g>
  <g transform="translate(133,62.29)">
    <path fill="none" d="M3.05,-0.5 L -2.29 3.49 -0.76 -3" class="primitive"/>
  </g>
  <g transform="translate(91.42,65.06)">
    <path fill="none" d="M2.82,1.27 L -3.84 1.64 1.02 -2.92" class="primitive"/>
  </g>
  <g transform="translate(26.13,120.85)">
    <path fill="none" d="M2.98,0.82 L -3.54 2.22 0.56 -3.04" class="primitive"/>
  </g>
  <g transform="translate(55.24,138.18)">
    <path fill="none" d="M2.84,-1.22 L -1.37 3.94 -1.47 -2.72" class="primitive"/>
  </g>
  <g transform="translate(119.74,73.16)">
    <path fill="none" d="M-2.79,-1.34 L 3.88 -1.55 -1.09 2.89" class="primitive"/>
  </g>
  <g transform="translate(112.21,103.77)">
    <path fill="none" d="M-1.42,-2.75 L 4.03 1.09 -2.61 1.66" class="primitive"/>
  </g>
  <g transform="translate(46.89,53.98)">
    <path fill="none" d="M-0.82,2.98 L -2.22 -3.54 3.04 0.56" class="primitive"/>
  </g>
  <g transform="translate(54.25,21.01)">
    <path fill="none" d="M-0.86,2.97 L -2.17 -3.57 3.03 0.6" class="primitive"/>
  </g>
  <g transform="translate(88.31,47.63)">
    <path fill="none" d="M-2.71,1.48 L 1 -4.06 1.72 2.57" class="primitive"/>
  </g>
  <g transform="translate(119.09,69.57)">
    <path fill="none" d="M-2.03,-2.34 L 4.17 0.11 -2.15 2.22" class="primitive"/>
  </g>
  <g transform="translate(75.13,84.63)">
    <path fill="none" d="M2.97,-0.85 L -1.87 3.73 -1.1 -2.89" class="primitive"/>
  </g>
  <g transform="translate(21.97,86.25)">
    <path fill="none" d="M2.64,1.61 L -4.01 1.16 1.37 -2.77" class="primitive"/>
  </g>
  <g transform="translate(114.51,99.78)">
    <path fill="none" d="M0.13,-3.09 L 2.96 2.95 -3.09 0.14" class="primitive"/>
  </g>
  <g transform="translate(50.02,50.64)">
    <path fill="none" d="M0.75,3 L -3.67 -1.99 2.92 -1.01" class="primitive"/>
  </g>
  <g transform="translate(47.61,22.1)">
    <path fill="none" d="M-2.68,1.53 L 0.92 -4.07 1.76 2.54" class="primitive"/>
  </g>
</g>
<g font-size="4" stroke="#000000" stroke-opacity="0.000" fill="#000000" id="img-2a102d01-3">
</g>
<g stroke-width="0" stroke="#000000" stroke-opacity="0.000" id="img-2a102d01-4">
  <g transform="translate(18.51,125.63)" fill="#1A94DB">
    <circle cx="0" cy="0" r="4.62" class="primitive"/>
  </g>
  <g transform="translate(49.59,13.33)" fill="#1A94DB">
    <circle cx="0" cy="0" r="4.62" class="primitive"/>
  </g>
  <g transform="translate(52.28,146.67)" fill="#1A94DB">
    <circle cx="0" cy="0" r="4.62" class="primitive"/>
  </g>
  <g transform="translate(90.45,38.9)" fill="#1A94DB">
    <circle cx="0" cy="0" r="4.62" class="primitive"/>
  </g>
  <g transform="translate(89.37,134.41)" fill="#1A94DB">
    <circle cx="0" cy="0" r="4.62" class="primitive"/>
  </g>
  <g transform="translate(146.67,41.4)" fill="#1A94DB">
    <circle cx="0" cy="0" r="4.62" class="primitive"/>
  </g>
  <g transform="translate(128.08,69.81)" fill="#1A94DB">
    <circle cx="0" cy="0" r="4.62" class="primitive"/>
  </g>
  <g transform="translate(71.11,92.67)" fill="#1A94DB">
    <circle cx="0" cy="0" r="4.62" class="primitive"/>
  </g>
  <g transform="translate(13.33,88.74)" fill="#1A94DB">
    <circle cx="0" cy="0" r="4.62" class="primitive"/>
  </g>
  <g transform="translate(120.88,106.12)" fill="#1A94DB">
    <circle cx="0" cy="0" r="4.62" class="primitive"/>
  </g>
  <g transform="translate(83.16,68.59)" fill="#1A94DB">
    <circle cx="0" cy="0" r="4.62" class="primitive"/>
  </g>
  <g transform="translate(42.12,46.36)" fill="#1A94DB">
    <circle cx="0" cy="0" r="4.62" class="primitive"/>
  </g>
</g>
<g font-size="4" stroke="#000000" stroke-opacity="0.000" fill="#000000" id="img-2a102d01-5">
  <g transform="translate(18.51,125.63)">
    <g class="primitive">
      <text text-anchor="middle" dy="0.35em">fixedacidity</text>
    </g>
  </g>
  <g transform="translate(49.59,13.33)">
    <g class="primitive">
      <text text-anchor="middle" dy="0.35em">volatileacidity</text>
    </g>
  </g>
  <g transform="translate(52.28,146.67)">
    <g class="primitive">
      <text text-anchor="middle" dy="0.35em">citricacid</text>
    </g>
  </g>
  <g transform="translate(90.45,38.9)">
    <g class="primitive">
      <text text-anchor="middle" dy="0.35em">residualsugar</text>
    </g>
  </g>
  <g transform="translate(89.37,134.41)">
    <g class="primitive">
      <text text-anchor="middle" dy="0.35em">chlorides</text>
    </g>
  </g>
  <g transform="translate(146.67,41.4)">
    <g class="primitive">
      <text text-anchor="middle" dy="0.35em">freesulfurdioxide</text>
    </g>
  </g>
  <g transform="translate(128.08,69.81)">
    <g class="primitive">
      <text text-anchor="middle" dy="0.35em">totalsulfurdioxide</text>
    </g>
  </g>
  <g transform="translate(71.11,92.67)">
    <g class="primitive">
      <text text-anchor="middle" dy="0.35em">density</text>
    </g>
  </g>
  <g transform="translate(13.33,88.74)">
    <g class="primitive">
      <text text-anchor="middle" dy="0.35em">ph</text>
    </g>
  </g>
  <g transform="translate(120.88,106.12)">
    <g class="primitive">
      <text text-anchor="middle" dy="0.35em">sulphates</text>
    </g>
  </g>
  <g transform="translate(83.16,68.59)">
    <g class="primitive">
      <text text-anchor="middle" dy="0.35em">alcohol</text>
    </g>
  </g>
  <g transform="translate(42.12,46.36)">
    <g class="primitive">
      <text text-anchor="middle" dy="0.35em">quality</text>
    </g>
  </g>
</g>
</svg>
