<?xml version="1.0" encoding="UTF-8"?>
<svg xmlns="http://www.w3.org/2000/svg"
     xmlns:xlink="http://www.w3.org/1999/xlink"
     version="1.2"
     width="160mm" height="160mm" viewBox="0 0 160 160"
     stroke="none"
     fill="#000000"
     stroke-width="0.3"
     font-size="3.88"
>
<defs>
  <marker id="arrow" markerWidth="15" markerHeight="7" refX="5" refY="3.5" orient="auto" markerUnits="strokeWidth">
    <path d="M0,0 L15,3.5 L0,7 z" stroke="context-stroke" fill="context-stroke"/>
  </marker>
</defs>
<g stroke-width="0.87" fill="#000000" fill-opacity="0.000" stroke="#D3D3D3" id="img-2a102d01-1">
  <g transform="translate(143.53,123.4)">
    <path fill="none" d="M2.44,-16.54 L -2.44 16.54" class="primitive"/>
  </g>
  <g transform="translate(142.13,79.32)">
    <path fill="none" d="M3.6,18.06 L -3.6 -18.06" class="primitive"/>
  </g>
  <g transform="translate(79.46,56.88)">
    <path fill="none" d="M-11.43,-16.69 L 11.43 16.69" class="primitive"/>
  </g>
  <g transform="translate(75.6,24.78)">
    <path fill="none" d="M-7.07,7.87 L 7.07 -7.87" class="primitive"/>
  </g>
  <g transform="translate(62.6,58.66)">
    <path fill="none" d="M-2.13,17.66 L 2.13 -17.66" class="primitive"/>
  </g>
  <g transform="translate(79.87,98)">
    <path fill="none" d="M-16.31,-13.8 L 16.31 13.8" class="primitive"/>
  </g>
  <g transform="translate(133.59,131.27)">
    <path fill="none" d="M-4.62,-9.13 L 4.62 9.13" class="primitive"/>
  </g>
  <g transform="translate(110.21,97.69)">
    <path fill="none" d="M13.53,16.44 L -13.53 -16.44" class="primitive"/>
  </g>
  <g transform="translate(57.3,99.5)">
    <path fill="none" d="M-1.92,13.64 L 1.92 -13.64" class="primitive"/>
  </g>
  <g transform="translate(34.03,132.29)">
    <path fill="none" d="M16.74,-11.64 L -16.74 11.64" class="primitive"/>
  </g>
  <g transform="translate(77.29,116.41)">
    <path fill="none" d="M-17.77,1.18 L 17.77 -1.18" class="primitive"/>
  </g>
  <g transform="translate(74.17,97.72)">
    <path fill="none" d="M-16.11,16.72 L 16.11 -16.72" class="primitive"/>
  </g>
  <g transform="translate(123.26,108.51)">
    <path fill="none" d="M-18.76,5.13 L 18.76 -5.13" class="primitive"/>
  </g>
  <g transform="translate(120.12,129.8)">
    <path fill="none" d="M-16.39,-12.04 L 16.39 12.04" class="primitive"/>
  </g>
  <g transform="translate(92.57,127.79)">
    <path fill="none" d="M4.92,-8.69 L -4.92 8.69" class="primitive"/>
  </g>
  <g transform="translate(96.74,96.22)">
    <path fill="none" d="M2.33,13.94 L -2.33 -13.94" class="primitive"/>
  </g>
  <g transform="translate(115.6,67.04)">
    <path fill="none" d="M-17.64,8.42 L 17.64 -8.42" class="primitive"/>
  </g>
  <g transform="translate(89.45,109.1)">
    <path fill="none" d="M3.54,-26.79 L -3.54 26.79" class="primitive"/>
  </g>
  <g transform="translate(89.75,45.43)">
    <path fill="none" d="M3.29,27.32 L -3.29 -27.32" class="primitive"/>
  </g>
</g>
<g stroke-width="0.87" stroke="#D3D3D3" id="img-2a102d01-2">
  <g transform="translate(141.7,135.8)">
    <path fill="none" d="M2.56,-1.73 L -0.61 4.13 -1.95 -2.4" class="primitive"/>
  </g>
  <g transform="translate(139.34,65.36)">
    <path fill="none" d="M-1.83,2.49 L -0.82 -4.1 2.64 1.6" class="primitive"/>
  </g>
  <g transform="translate(88.54,70.12)">
    <path fill="none" d="M0.7,-3.01 L 2.36 3.45 -3.06 -0.43" class="primitive"/>
  </g>
  <g transform="translate(79.88,20.02)">
    <path fill="none" d="M-3.09,0.03 L 2.79 -3.11 0.3 3.08" class="primitive"/>
  </g>
  <g transform="translate(64.23,45.15)">
    <path fill="none" d="M-2.51,1.8 L 0.5 -4.15 2.01 2.35" class="primitive"/>
  </g>
  <g transform="translate(93,109.11)">
    <path fill="none" d="M-0.12,-3.09 L 3.19 2.7 -3.07 0.39" class="primitive"/>
  </g>
  <g transform="translate(136.33,136.67)">
    <path fill="none" d="M1.09,-2.89 L 1.89 3.73 -2.98 -0.83" class="primitive"/>
  </g>
  <g transform="translate(99.33,84.47)">
    <path fill="none" d="M-0.43,3.06 L -2.65 -3.22 3.09 0.16" class="primitive"/>
  </g>
  <g transform="translate(58.64,89.99)">
    <path fill="none" d="M-2.55,1.75 L 0.58 -4.14 1.97 2.39" class="primitive"/>
  </g>
  <g transform="translate(20.71,141.54)">
    <path fill="none" d="M3.02,0.68 L -3.43 2.38 0.41 -3.06" class="primitive"/>
  </g>
  <g transform="translate(90.89,115.51)">
    <path fill="none" d="M-2.23,-2.14 L 4.17 -0.28 -1.93 2.41" class="primitive"/>
  </g>
  <g transform="translate(87.38,84.01)">
    <path fill="none" d="M-3.09,-0.08 L 2.9 -3.01 0.19 3.09" class="primitive"/>
  </g>
  <g transform="translate(138,104.47)">
    <path fill="none" d="M-2.62,-1.65 L 4.03 -1.1 -1.41 2.75" class="primitive"/>
  </g>
  <g transform="translate(133.14,139.37)">
    <path fill="none" d="M-0.33,-3.07 L 3.37 2.47 -3.03 0.6" class="primitive"/>
  </g>
  <g transform="translate(89.71,132.84)">
    <path fill="none" d="M3.01,-0.69 L -2.06 3.63 -0.96 -2.94" class="primitive"/>
  </g>
  <g transform="translate(95.1,86.4)">
    <path fill="none" d="M-1.9,2.44 L -0.69 -4.12 2.59 1.68" class="primitive"/>
  </g>
  <g transform="translate(129.48,60.42)">
    <path fill="none" d="M-2.87,-1.16 L 3.77 -1.8 -0.9 2.96" class="primitive"/>
  </g>
  <g transform="translate(86.46,131.75)">
    <path fill="none" d="M2.53,-1.77 L -0.55 4.14 -1.99 -2.37" class="primitive"/>
  </g>
  <g transform="translate(86.96,22.26)">
    <path fill="none" d="M-2.01,2.35 L -0.5 -4.15 2.51 1.8" class="primitive"/>
  </g>
</g>
<g font-size="4" stroke="#000000" stroke-opacity="0.000" fill="#000000" id="img-2a102d01-3">
</g>
<g stroke-width="0" stroke="#000000" stroke-opacity="0.000" id="img-2a102d01-4">
  <g transform="translate(146.67,102.1)" fill="#1A94DB">
    <circle cx="0" cy="0" r="4.62" class="primitive"/>
  </g>
  <g transform="translate(65.31,36.22)" fill="#1A94DB">
    <circle cx="0" cy="0" r="4.62" class="primitive"/>
  </g>
  <g transform="translate(140.39,144.69)" fill="#1A94DB">
    <circle cx="0" cy="0" r="4.62" class="primitive"/>
  </g>
  <g transform="translate(59.89,81.09)" fill="#1A94DB">
    <circle cx="0" cy="0" r="4.62" class="primitive"/>
  </g>
  <g transform="translate(126.8,117.84)" fill="#1A94DB">
    <circle cx="0" cy="0" r="4.62" class="primitive"/>
  </g>
  <g transform="translate(13.33,146.67)" fill="#1A94DB">
    <circle cx="0" cy="0" r="4.62" class="primitive"/>
  </g>
  <g transform="translate(54.72,117.9)" fill="#1A94DB">
    <circle cx="0" cy="0" r="4.62" class="primitive"/>
  </g>
  <g transform="translate(99.86,114.91)" fill="#1A94DB">
    <circle cx="0" cy="0" r="4.62" class="primitive"/>
  </g>
  <g transform="translate(137.59,56.55)" fill="#1A94DB">
    <circle cx="0" cy="0" r="4.62" class="primitive"/>
  </g>
  <g transform="translate(85.28,140.66)" fill="#1A94DB">
    <circle cx="0" cy="0" r="4.62" class="primitive"/>
  </g>
  <g transform="translate(93.62,77.53)" fill="#1A94DB">
    <circle cx="0" cy="0" r="4.62" class="primitive"/>
  </g>
  <g transform="translate(85.89,13.33)" fill="#1A94DB">
    <circle cx="0" cy="0" r="4.62" class="primitive"/>
  </g>
</g>
<g font-size="4" stroke="#000000" stroke-opacity="0.000" fill="#000000" id="img-2a102d01-5">
  <g transform="translate(146.67,102.1)">
    <g class="primitive">
      <text text-anchor="middle" dy="0.35em">fixedacidity</text>
    </g>
  </g>
  <g transform="translate(65.31,36.22)">
    <g class="primitive">
      <text text-anchor="middle" dy="0.35em">volatileacidity</text>
    </g>
  </g>
  <g transform="translate(140.39,144.69)">
    <g class="primitive">
      <text text-anchor="middle" dy="0.35em">citricacid</text>
    </g>
  </g>
  <g transform="translate(59.89,81.09)">
    <g class="primitive">
      <text text-anchor="middle" dy="0.35em">residualsugar</text>
    </g>
  </g>
  <g transform="translate(126.8,117.84)">
    <g class="primitive">
      <text text-anchor="middle" dy="0.35em">chlorides</text>
    </g>
  </g>
  <g transform="translate(13.33,146.67)">
    <g class="primitive">
      <text text-anchor="middle" dy="0.35em">freesulfurdioxide</text>
    </g>
  </g>
  <g transform="translate(54.72,117.9)">
    <g class="primitive">
      <text text-anchor="middle" dy="0.35em">totalsulfurdioxide</text>
    </g>
  </g>
  <g transform="translate(99.86,114.91)">
    <g class="primitive">
      <text text-anchor="middle" dy="0.35em">density</text>
    </g>
  </g>
  <g transform="translate(137.59,56.55)">
    <g class="primitive">
      <text text-anchor="middle" dy="0.35em">ph</text>
    </g>
  </g>
  <g transform="translate(85.28,140.66)">
    <g class="primitive">
      <text text-anchor="middle" dy="0.35em">sulphates</text>
    </g>
  </g>
  <g transform="translate(93.62,77.53)">
    <g class="primitive">
      <text text-anchor="middle" dy="0.35em">alcohol</text>
    </g>
  </g>
  <g transform="translate(85.89,13.33)">
    <g class="primitive">
      <text text-anchor="middle" dy="0.35em">quality</text>
    </g>
  </g>
</g>
</svg>
