<?xml version="1.0" encoding="UTF-8"?>
<svg xmlns="http://www.w3.org/2000/svg"
     xmlns:xlink="http://www.w3.org/1999/xlink"
     version="1.2"
     width="160mm" height="160mm" viewBox="0 0 160 160"
     stroke="none"
     fill="#000000"
     stroke-width="0.3"
     font-size="3.88"
>
<defs>
  <marker id="arrow" markerWidth="15" markerHeight="7" refX="5" refY="3.5" orient="auto" markerUnits="strokeWidth">
    <path d="M0,0 L15,3.5 L0,7 z" stroke="context-stroke" fill="context-stroke"/>
  </marker>
</defs>
<g stroke-width="1.06" fill="#000000" fill-opacity="0.000" stroke="#D3D3D3" id="img-2a102d01-1">
  <g transform="translate(90.29,63.53)">
    <path fill="none" d="M-7.08,-8.73 L 7.08 8.73" class="primitive"/>
  </g>
  <g transform="translate(104.61,111.75)">
    <path fill="none" d="M2.93,29.05 L -2.93 -29.05" class="primitive"/>
  </g>
  <g transform="translate(27.34,73.59)">
    <path fill="none" d="M-11.16,20.2 L 11.16 -20.2" class="primitive"/>
  </g>
  <g transform="translate(60.42,49.23)">
    <path fill="none" d="M-13.19,-0.69 L 13.19 0.69" class="primitive"/>
  </g>
  <g transform="translate(71.22,62.53)">
    <path fill="none" d="M-24.56,-11.76 L 24.56 11.76" class="primitive"/>
  </g>
  <g transform="translate(61.95,30.78)">
    <path fill="none" d="M-16.11,13.64 L 16.11 -13.64" class="primitive"/>
  </g>
  <g transform="translate(79.77,79.87)">
    <path fill="none" d="M0.22,23.76 L -0.22 -23.76" class="primitive"/>
  </g>
  <g transform="translate(94.08,128.1)">
    <path fill="none" d="M-10.49,-13.87 L 10.49 13.87" class="primitive"/>
  </g>
  <g transform="translate(46.69,104.24)">
    <path fill="none" d="M27.53,4.37 L -27.53 -4.37" class="primitive"/>
  </g>
  <g transform="translate(90.56,93.18)">
    <path fill="none" d="M-7.34,11.39 L 7.34 -11.39" class="primitive"/>
  </g>
  <g transform="translate(113.35,108.55)">
    <path fill="none" d="M-27.42,0.8 L 27.42 -0.8" class="primitive"/>
  </g>
  <g transform="translate(123.88,92.21)">
    <path fill="none" d="M-17.9,-12.08 L 17.9 12.08" class="primitive"/>
  </g>
  <g transform="translate(81.02,31.78)">
    <path fill="none" d="M1.04,-12.57 L -1.04 12.57" class="primitive"/>
  </g>
  <g transform="translate(91.82,45.08)">
    <path fill="none" d="M-7.62,-26.09 L 7.62 26.09" class="primitive"/>
  </g>
</g>
<g stroke-width="1.06" stroke="#D3D3D3" id="img-2a102d01-2">
  <g transform="translate(94.75,69.02)">
    <path fill="none" d="M0.45,-3.06 L 2.63 3.24 -3.09 -0.19" class="primitive"/>
  </g>
  <g transform="translate(102.1,86.85)">
    <path fill="none" d="M-2.06,2.31 L -0.42 -4.16 2.48 1.85" class="primitive"/>
  </g>
  <g transform="translate(36.48,57.05)">
    <path fill="none" d="M-3.01,0.73 L 2.02 -3.66 0.99 2.93" class="primitive"/>
  </g>
  <g transform="translate(69.44,49.7)">
    <path fill="none" d="M-1.97,-2.39 L 4.17 0.22 -2.2 2.17" class="primitive"/>
  </g>
  <g transform="translate(92.01,72.49)">
    <path fill="none" d="M-0.9,-2.96 L 3.77 1.8 -2.87 1.15" class="primitive"/>
  </g>
  <g transform="translate(74.87,19.84)">
    <path fill="none" d="M-3.07,-0.39 L 3.19 -2.7 -0.12 3.09" class="primitive"/>
  </g>
  <g transform="translate(79.59,60.29)">
    <path fill="none" d="M-2.26,2.11 L -0.04 -4.18 2.3 2.07" class="primitive"/>
  </g>
  <g transform="translate(102.05,138.64)">
    <path fill="none" d="M0.56,-3.04 L 2.52 3.33 -3.08 -0.29" class="primitive"/>
  </g>
  <g transform="translate(23.28,100.52)">
    <path fill="none" d="M1.7,2.58 L -4.12 -0.65 2.42 -1.92" class="primitive"/>
  </g>
  <g transform="translate(95.64,85.3)">
    <path fill="none" d="M-3.05,0.52 L 2.26 -3.51 0.79 2.99" class="primitive"/>
  </g>
  <g transform="translate(136.6,107.87)">
    <path fill="none" d="M-2.15,-2.22 L 4.17 -0.12 -2.02 2.34" class="primitive"/>
  </g>
  <g transform="translate(138.32,101.95)">
    <path fill="none" d="M-0.46,-3.06 L 3.46 2.34 -3.01 0.72" class="primitive"/>
  </g>
  <g transform="translate(80.33,40.18)">
    <path fill="none" d="M2.44,-1.89 L -0.35 4.16 -2.1 -2.27" class="primitive"/>
  </g>
  <g transform="translate(98.27,67.17)">
    <path fill="none" d="M1.6,-2.64 L 1.17 4.01 -2.77 -1.37" class="primitive"/>
  </g>
</g>
<g font-size="4" stroke="#000000" stroke-opacity="0.000" fill="#000000" id="img-2a102d01-3">
</g>
<g stroke-width="0" stroke="#000000" stroke-opacity="0.000" id="img-2a102d01-4">
  <g transform="translate(79.5,50.22)" fill="#1A94DB">
    <circle cx="0" cy="0" r="5.66" class="primitive"/>
  </g>
  <g transform="translate(108.13,146.67)" fill="#1A94DB">
    <circle cx="0" cy="0" r="5.66" class="primitive"/>
  </g>
  <g transform="translate(13.33,98.94)" fill="#1A94DB">
    <circle cx="0" cy="0" r="5.66" class="primitive"/>
  </g>
  <g transform="translate(41.35,48.23)" fill="#1A94DB">
    <circle cx="0" cy="0" r="5.66" class="primitive"/>
  </g>
  <g transform="translate(80.04,109.53)" fill="#1A94DB">
    <circle cx="0" cy="0" r="5.66" class="primitive"/>
  </g>
  <g transform="translate(101.09,76.84)" fill="#1A94DB">
    <circle cx="0" cy="0" r="5.66" class="primitive"/>
  </g>
  <g transform="translate(82.55,13.33)" fill="#1A94DB">
    <circle cx="0" cy="0" r="5.66" class="primitive"/>
  </g>
  <g transform="translate(146.67,107.58)" fill="#1A94DB">
    <circle cx="0" cy="0" r="5.66" class="primitive"/>
  </g>
</g>
<g font-size="4" stroke="#000000" stroke-opacity="0.000" fill="#000000" id="img-2a102d01-5">
  <g transform="translate(79.5,50.22)">
    <g class="primitive">
      <text text-anchor="middle" dy="0.35em">age</text>
    </g>
  </g>
  <g transform="translate(108.13,146.67)">
    <g class="primitive">
      <text text-anchor="middle" dy="0.35em">portembarked</text>
    </g>
  </g>
  <g transform="translate(13.33,98.94)">
    <g class="primitive">
      <text text-anchor="middle" dy="0.35em">fare</text>
    </g>
  </g>
  <g transform="translate(41.35,48.23)">
    <g class="primitive">
      <text text-anchor="middle" dy="0.35em">numparentschildren</text>
    </g>
  </g>
  <g transform="translate(80.04,109.53)">
    <g class="primitive">
      <text text-anchor="middle" dy="0.35em">passengerclass</text>
    </g>
  </g>
  <g transform="translate(101.09,76.84)">
    <g class="primitive">
      <text text-anchor="middle" dy="0.35em">sex</text>
    </g>
  </g>
  <g transform="translate(82.55,13.33)">
    <g class="primitive">
      <text text-anchor="middle" dy="0.35em">numsiblings</text>
    </g>
  </g>
  <g transform="translate(146.67,107.58)">
    <g class="primitive">
      <text text-anchor="middle" dy="0.35em">survived</text>
    </g>
  </g>
</g>
</svg>
