<?xml version="1.0" encoding="UTF-8"?>
<svg xmlns="http://www.w3.org/2000/svg"
     xmlns:xlink="http://www.w3.org/1999/xlink"
     version="1.2"
     width="160mm" height="160mm" viewBox="0 0 160 160"
     stroke="none"
     fill="#000000"
     stroke-width="0.3"
     font-size="3.88"
>
<defs>
  <marker id="arrow" markerWidth="15" markerHeight="7" refX="5" refY="3.5" orient="auto" markerUnits="strokeWidth">
    <path d="M0,0 L15,3.5 L0,7 z" stroke="context-stroke" fill="context-stroke"/>
  </marker>
</defs>
<g stroke-width="1.06" fill="#000000" fill-opacity="0.000" stroke="#D3D3D3" id="img-2a102d01-1">
  <g transform="translate(129.71,54.52)">
    <path fill="none" d="M11.11,1.24 L -11.11 -1.24" class="primitive"/>
  </g>
  <g transform="translate(136.87,34.88)">
    <path fill="none" d="M7.36,16.18 L -7.36 -16.18" class="primitive"/>
  </g>
  <g transform="translate(89.11,70.08)">
    <path fill="none" d="M-18.89,13.95 L 18.89 -13.95" class="primitive"/>
  </g>
  <g transform="translate(53.71,117.1)">
    <path fill="none" d="M9.59,-24.09 L -9.59 24.09" class="primitive"/>
  </g>
  <g transform="translate(39.41,85.45)">
    <path fill="none" d="M20.2,1.61 L -20.2 -1.61" class="primitive"/>
  </g>
  <g transform="translate(75.84,64.5)">
    <path fill="none" d="M-7.94,17.66 L 7.94 -17.66" class="primitive"/>
  </g>
  <g transform="translate(127.16,72.26)">
    <path fill="none" d="M-14.93,12.13 L 14.93 -12.13" class="primitive"/>
  </g>
  <g transform="translate(86.57,87.82)">
    <path fill="none" d="M15.2,0.21 L -15.2 -0.21" class="primitive"/>
  </g>
  <g transform="translate(96.93,64.78)">
    <path fill="none" d="M8.27,17.97 L -8.27 -17.97" class="primitive"/>
  </g>
  <g transform="translate(119.9,32.98)">
    <path fill="none" d="M5.14,-14.11 L -5.14 14.11" class="primitive"/>
  </g>
  <g transform="translate(106.63,27.4)">
    <path fill="none" d="M-15.58,10.72 L 15.58 -10.72" class="primitive"/>
  </g>
</g>
<g stroke-width="1.06" stroke="#D3D3D3" id="img-2a102d01-2">
  <g transform="translate(122.75,53.74)">
    <path fill="none" d="M1.82,2.5 L -4.15 -0.46 2.33 -2.03" class="primitive"/>
  </g>
  <g transform="translate(131.23,22.5)">
    <path fill="none" d="M-1.21,2.84 L -1.73 -3.8 2.94 0.96" class="primitive"/>
  </g>
  <g transform="translate(104.64,58.6)">
    <path fill="none" d="M-3.03,-0.59 L 3.36 -2.48 -0.32 3.07" class="primitive"/>
  </g>
  <g transform="translate(45.67,137.31)">
    <path fill="none" d="M2.89,-1.1 L -1.54 3.88 -1.35 -2.78" class="primitive"/>
  </g>
  <g transform="translate(23.37,84.17)">
    <path fill="none" d="M1.9,2.44 L -4.16 -0.33 2.26 -2.11" class="primitive"/>
  </g>
  <g transform="translate(82.07,50.65)">
    <path fill="none" d="M-2.94,0.97 L 1.71 -3.81 1.22 2.84" class="primitive"/>
  </g>
  <g transform="translate(138.85,62.77)">
    <path fill="none" d="M-3.06,-0.45 L 3.24 -2.63 -0.18 3.09" class="primitive"/>
  </g>
  <g transform="translate(75.55,87.67)">
    <path fill="none" d="M2.06,2.31 L -4.18 -0.06 2.12 -2.25" class="primitive"/>
  </g>
  <g transform="translate(90.41,50.61)">
    <path fill="none" d="M-1.2,2.85 L -1.75 -3.79 2.94 0.94" class="primitive"/>
  </g>
  <g transform="translate(116.19,43.16)">
    <path fill="none" d="M2.86,-1.18 L -1.43 3.92 -1.43 -2.74" class="primitive"/>
  </g>
  <g transform="translate(118.77,19.04)">
    <path fill="none" d="M-3.01,-0.69 L 3.44 -2.37 -0.43 3.06" class="primitive"/>
  </g>
</g>
<g font-size="4" stroke="#000000" stroke-opacity="0.000" fill="#000000" id="img-2a102d01-3">
</g>
<g stroke-width="0" stroke="#000000" stroke-opacity="0.000" id="img-2a102d01-4">
  <g transform="translate(112.74,52.62)" fill="#1A94DB">
    <circle cx="0" cy="0" r="5.66" class="primitive"/>
  </g>
  <g transform="translate(41.94,146.67)" fill="#1A94DB">
    <circle cx="0" cy="0" r="5.66" class="primitive"/>
  </g>
  <g transform="translate(13.33,83.37)" fill="#1A94DB">
    <circle cx="0" cy="0" r="5.66" class="primitive"/>
  </g>
  <g transform="translate(146.67,56.42)" fill="#1A94DB">
    <circle cx="0" cy="0" r="5.66" class="primitive"/>
  </g>
  <g transform="translate(65.48,87.53)" fill="#1A94DB">
    <circle cx="0" cy="0" r="5.66" class="primitive"/>
  </g>
  <g transform="translate(107.66,88.11)" fill="#1A94DB">
    <circle cx="0" cy="0" r="5.66" class="primitive"/>
  </g>
  <g transform="translate(127.06,13.33)" fill="#1A94DB">
    <circle cx="0" cy="0" r="5.66" class="primitive"/>
  </g>
  <g transform="translate(86.2,41.46)" fill="#1A94DB">
    <circle cx="0" cy="0" r="5.66" class="primitive"/>
  </g>
</g>
<g font-size="4" stroke="#000000" stroke-opacity="0.000" fill="#000000" id="img-2a102d01-5">
  <g transform="translate(112.74,52.62)">
    <g class="primitive">
      <text text-anchor="middle" dy="0.35em">age</text>
    </g>
  </g>
  <g transform="translate(41.94,146.67)">
    <g class="primitive">
      <text text-anchor="middle" dy="0.35em">portembarked</text>
    </g>
  </g>
  <g transform="translate(13.33,83.37)">
    <g class="primitive">
      <text text-anchor="middle" dy="0.35em">fare</text>
    </g>
  </g>
  <g transform="translate(146.67,56.42)">
    <g class="primitive">
      <text text-anchor="middle" dy="0.35em">numparentschildren</text>
    </g>
  </g>
  <g transform="translate(65.48,87.53)">
    <g class="primitive">
      <text text-anchor="middle" dy="0.35em">passengerclass</text>
    </g>
  </g>
  <g transform="translate(107.66,88.11)">
    <g class="primitive">
      <text text-anchor="middle" dy="0.35em">sex</text>
    </g>
  </g>
  <g transform="translate(127.06,13.33)">
    <g class="primitive">
      <text text-anchor="middle" dy="0.35em">numsiblings</text>
    </g>
  </g>
  <g transform="translate(86.2,41.46)">
    <g class="primitive">
      <text text-anchor="middle" dy="0.35em">survived</text>
    </g>
  </g>
</g>
</svg>
