<?xml version="1.0" encoding="UTF-8"?>
<svg xmlns="http://www.w3.org/2000/svg"
     xmlns:xlink="http://www.w3.org/1999/xlink"
     version="1.2"
     width="160mm" height="160mm" viewBox="0 0 160 160"
     stroke="none"
     fill="#000000"
     stroke-width="0.3"
     font-size="3.88"
>
<defs>
  <marker id="arrow" markerWidth="15" markerHeight="7" refX="5" refY="3.5" orient="auto" markerUnits="strokeWidth">
    <path d="M0,0 L15,3.5 L0,7 z" stroke="context-stroke" fill="context-stroke"/>
  </marker>
</defs>
<g stroke-width="1.06" fill="#000000" fill-opacity="0.000" stroke="#D3D3D3" id="img-2a102d01-1">
  <g transform="translate(45.97,96.29)">
    <path fill="none" d="M-4.89,14.39 L 4.89 -14.39" class="primitive"/>
  </g>
  <g transform="translate(55.24,44.83)">
    <path fill="none" d="M2.02,-25.62 L -2.02 25.62" class="primitive"/>
  </g>
  <g transform="translate(117.02,98.85)">
    <path fill="none" d="M24.17,9.56 L -24.17 -9.56" class="primitive"/>
  </g>
  <g transform="translate(26.26,127.3)">
    <path fill="none" d="M-8.45,7.21 L 8.45 -7.21" class="primitive"/>
  </g>
  <g transform="translate(33.04,107.33)">
    <path fill="none" d="M-16.55,26.04 L 16.55 -26.04" class="primitive"/>
  </g>
  <g transform="translate(63.28,101.7)">
    <path fill="none" d="M19.05,-11.52 L -19.05 11.52" class="primitive"/>
  </g>
  <g transform="translate(72.55,50.23)">
    <path fill="none" d="M12.63,31.43 L -12.63 -31.43" class="primitive"/>
  </g>
  <g transform="translate(70.06,81.72)">
    <path fill="none" d="M11.69,3.65 L -11.69 -3.65" class="primitive"/>
  </g>
  <g transform="translate(92.88,56.89)">
    <path fill="none" d="M-4.45,24.44 L 4.45 -24.44" class="primitive"/>
  </g>
  <g transform="translate(75.57,51.48)">
    <path fill="none" d="M-18.83,20.49 L 18.83 -20.49" class="primitive"/>
  </g>
  <g transform="translate(48.13,131.47)">
    <path fill="none" d="M5.95,10.12 L -5.95 -10.12" class="primitive"/>
  </g>
  <g transform="translate(35.2,142.5)">
    <path fill="none" d="M16.08,3.06 L -16.08 -3.06" class="primitive"/>
  </g>
  <g transform="translate(72.22,116.9)">
    <path fill="none" d="M-12.48,24.52 L 12.48 -24.52" class="primitive"/>
  </g>
  <g transform="translate(54.91,111.49)">
    <path fill="none" d="M1.79,29.29 L -1.79 -29.29" class="primitive"/>
  </g>
</g>
<g stroke-width="1.06" stroke="#D3D3D3" id="img-2a102d01-2">
  <g transform="translate(49.52,85.85)">
    <path fill="none" d="M-2.83,1.24 L 1.34 -3.95 1.49 2.71" class="primitive"/>
  </g>
  <g transform="translate(53.54,66.28)">
    <path fill="none" d="M2.44,-1.9 L -0.33 4.16 -2.11 -2.26" class="primitive"/>
  </g>
  <g transform="translate(96.74,90.83)">
    <path fill="none" d="M1.1,2.89 L -3.88 -1.54 2.78 -1.35" class="primitive"/>
  </g>
  <g transform="translate(31.53,122.8)">
    <path fill="none" d="M-3.07,-0.38 L 3.18 -2.71 -0.11 3.09" class="primitive"/>
  </g>
  <g transform="translate(47.35,84.81)">
    <path fill="none" d="M-3.04,0.54 L 2.24 -3.52 0.8 2.99" class="primitive"/>
  </g>
  <g transform="translate(47.81,111.06)">
    <path fill="none" d="M2.97,0.87 L -3.57 2.16 0.61 -3.03" class="primitive"/>
  </g>
  <g transform="translate(61.47,22.68)">
    <path fill="none" d="M-1.34,2.79 L -1.56 -3.88 2.89 1.09" class="primitive"/>
  </g>
  <g transform="translate(62.36,79.32)">
    <path fill="none" d="M1.31,2.8 L -3.99 -1.24 2.67 -1.55" class="primitive"/>
  </g>
  <g transform="translate(96.58,36.55)">
    <path fill="none" d="M-2.62,1.65 L 0.75 -4.11 1.87 2.46" class="primitive"/>
  </g>
  <g transform="translate(91.57,34.06)">
    <path fill="none" d="M-3.09,-0 L 2.83 -3.08 0.27 3.08" class="primitive"/>
  </g>
  <g transform="translate(44.29,124.95)">
    <path fill="none" d="M-0.91,2.96 L -2.12 -3.6 3.02 0.64" class="primitive"/>
  </g>
  <g transform="translate(23.22,140.22)">
    <path fill="none" d="M1.62,2.63 L -4.1 -0.78 2.48 -1.85" class="primitive"/>
  </g>
  <g transform="translate(82.81,96.1)">
    <path fill="none" d="M-2.98,0.83 L 1.89 -3.72 1.08 2.9" class="primitive"/>
  </g>
  <g transform="translate(53.37,86.37)">
    <path fill="none" d="M-2.15,2.22 L -0.26 -4.17 2.4 1.94" class="primitive"/>
  </g>
</g>
<g font-size="4" stroke="#000000" stroke-opacity="0.000" fill="#000000" id="img-2a102d01-3">
</g>
<g stroke-width="0" stroke="#000000" stroke-opacity="0.000" id="img-2a102d01-4">
  <g transform="translate(39.19,116.27)" fill="#1A94DB">
    <circle cx="0" cy="0" r="5.66" class="primitive"/>
  </g>
  <g transform="translate(57.72,13.33)" fill="#1A94DB">
    <circle cx="0" cy="0" r="5.66" class="primitive"/>
  </g>
  <g transform="translate(146.67,110.57)" fill="#1A94DB">
    <circle cx="0" cy="0" r="5.66" class="primitive"/>
  </g>
  <g transform="translate(13.33,138.34)" fill="#1A94DB">
    <circle cx="0" cy="0" r="5.66" class="primitive"/>
  </g>
  <g transform="translate(87.37,87.13)" fill="#1A94DB">
    <circle cx="0" cy="0" r="5.66" class="primitive"/>
  </g>
  <g transform="translate(52.75,76.32)" fill="#1A94DB">
    <circle cx="0" cy="0" r="5.66" class="primitive"/>
  </g>
  <g transform="translate(57.06,146.67)" fill="#1A94DB">
    <circle cx="0" cy="0" r="5.66" class="primitive"/>
  </g>
  <g transform="translate(98.38,26.65)" fill="#1A94DB">
    <circle cx="0" cy="0" r="5.66" class="primitive"/>
  </g>
</g>
<g font-size="4" stroke="#000000" stroke-opacity="0.000" fill="#000000" id="img-2a102d01-5">
  <g transform="translate(39.19,116.27)">
    <g class="primitive">
      <text text-anchor="middle" dy="0.35em">age</text>
    </g>
  </g>
  <g transform="translate(57.72,13.33)">
    <g class="primitive">
      <text text-anchor="middle" dy="0.35em">portembarked</text>
    </g>
  </g>
  <g transform="translate(146.67,110.57)">
    <g class="primitive">
      <text text-anchor="middle" dy="0.35em">fare</text>
    </g>
  </g>
  <g transform="translate(13.33,138.34)">
    <g class="primitive">
      <text text-anchor="middle" dy="0.35em">numparentschildren</text>
    </g>
  </g>
  <g transform="translate(87.37,87.13)">
    <g class="primitive">
      <text text-anchor="middle" dy="0.35em">passengerclass</text>
    </g>
  </g>
  <g transform="translate(52.75,76.32)">
    <g class="primitive">
      <text text-anchor="middle" dy="0.35em">sex</text>
    </g>
  </g>
  <g transform="translate(57.06,146.67)">
    <g class="primitive">
      <text text-anchor="middle" dy="0.35em">numsiblings</text>
    </g>
  </g>
  <g transform="translate(98.38,26.65)">
    <g class="primitive">
      <text text-anchor="middle" dy="0.35em">survived</text>
    </g>
  </g>
</g>
</svg>
